<?xml version="1.0" encoding="UTF-8" standalone="no"?>
<!DOCTYPE svg PUBLIC "-//W3C//DTD SVG 1.1//EN"
 "http://www.w3.org/Graphics/SVG/1.1/DTD/svg11.dtd">
<!-- Generated by graphviz version 2.43.0 (0)
 -->
<!-- Title: architecture Pages: 1 -->
<svg width="1076pt" height="607pt"
 viewBox="0.00 0.00 1075.68 607.40" xmlns="http://www.w3.org/2000/svg" xmlns:xlink="http://www.w3.org/1999/xlink">
<g id="graph0" class="graph" transform="scale(1 1) rotate(0) translate(28.8 578.6)">
<title>architecture</title>
<polygon fill="white" stroke="transparent" points="-28.8,28.8 -28.8,-578.6 1046.88,-578.6 1046.88,28.8 -28.8,28.8"/>
<g id="clust1" class="cluster">
<title>cluster_kernel</title>
<polygon fill="white" stroke="black" stroke-width="2" points="104.08,-8 104.08,-448.8 454.08,-448.8 454.08,-8 104.08,-8"/>
<text text-anchor="middle" x="279.08" y="-437.6" font-family="Helvetica,sans-Serif" font-weight="bold" font-size="9.00">KERNEL &#160;(kernel.html — frozen)</text>
</g>
<g id="clust2" class="cluster">
<title>cluster_loader</title>
<polygon fill="white" stroke="#888888" stroke-dasharray="5,2" points="659.08,-377.8 659.08,-541.8 774.08,-541.8 774.08,-377.8 659.08,-377.8"/>
<text text-anchor="middle" x="716.58" y="-530.6" font-family="Helvetica,sans-Serif" font-size="9.00" fill="#888888">LOADER &#160;(index.html)</text>
</g>
<g id="clust3" class="cluster">
<title>cluster_programs</title>
<polygon fill="white" stroke="#666666" points="462.08,-276.8 462.08,-346.8 1010.08,-346.8 1010.08,-276.8 462.08,-276.8"/>
<text text-anchor="middle" x="736.08" y="-335.6" font-family="Helvetica,sans-Serif" font-size="9.00" fill="#666666">PROGRAMS &#160;(programs/*.js)</text>
</g>
<!-- manifold -->
<g id="node1" class="node">
<title>manifold</title>
<polygon fill="white" stroke="black" points="256.08,-422.8 192.08,-422.8 192.08,-386.8 256.08,-386.8 256.08,-422.8"/>
<text text-anchor="middle" x="224.08" y="-407.6" font-family="Helvetica,sans-Serif" font-size="9.00">MANIFOLD</text>
<text text-anchor="middle" x="224.08" y="-397.6" font-family="Helvetica,sans-Serif" font-size="9.00">ENGINE</text>
</g>
<!-- heat -->
<g id="node2" class="node">
<title>heat</title>
<polygon fill="#f0f0f0" stroke="black" points="446.08,-141 340.08,-141 340.08,-105 446.08,-105 446.08,-141"/>
<text text-anchor="middle" x="393.08" y="-125.8" font-family="Helvetica,sans-Serif" font-size="9.00">HEAT BUFFER</text>
<text text-anchor="middle" x="393.08" y="-115.8" font-family="Helvetica,sans-Serif" font-size="9.00">Float32Array[1024]</text>
</g>
<!-- manifold&#45;&gt;heat -->
<g id="edge3" class="edge">
<title>manifold&#45;&gt;heat</title>
<path fill="none" stroke="black" stroke-width="0.8" d="M245.42,-386.74C245.42,-324.55 245.42,-123 245.42,-123 245.42,-123 329.77,-123 329.77,-123"/>
<polygon fill="black" stroke="black" stroke-width="0.8" points="329.77,-126.5 339.77,-123 329.77,-119.5 329.77,-126.5"/>
<text text-anchor="middle" x="243.08" y="-254.6" font-family="Helvetica,sans-Serif" font-size="8.00" fill="#444444">init zeros</text>
</g>
<!-- adjacency -->
<g id="node3" class="node">
<title>adjacency</title>
<polygon fill="white" stroke="black" points="351.08,-320.8 261.08,-320.8 261.08,-284.8 351.08,-284.8 351.08,-320.8"/>
<text text-anchor="middle" x="306.08" y="-305.6" font-family="Helvetica,sans-Serif" font-size="9.00">ADJACENCY</text>
<text text-anchor="middle" x="306.08" y="-295.6" font-family="Helvetica,sans-Serif" font-size="9.00">GRAPH &#160;G=(V,E)</text>
</g>
<!-- manifold&#45;&gt;adjacency -->
<g id="edge2" class="edge">
<title>manifold&#45;&gt;adjacency</title>
<path fill="none" stroke="black" stroke-width="0.8" d="M250.75,-386.34C250.75,-354.58 250.75,-293 250.75,-293 250.75,-293 251.76,-293 251.76,-293"/>
<polygon fill="black" stroke="black" stroke-width="0.8" points="250.9,-296.5 260.9,-293 250.9,-289.5 250.9,-296.5"/>
<text text-anchor="middle" x="296.58" y="-357.4" font-family="Helvetica,sans-Serif" font-size="8.00" fill="#444444">build</text>
</g>
<!-- renderer -->
<g id="node5" class="node">
<title>renderer</title>
<polygon fill="white" stroke="black" points="240.08,-52 174.08,-52 174.08,-16 240.08,-16 240.08,-52"/>
<text text-anchor="middle" x="207.08" y="-36.8" font-family="Helvetica,sans-Serif" font-size="9.00">THREE.JS</text>
<text text-anchor="middle" x="207.08" y="-26.8" font-family="Helvetica,sans-Serif" font-size="9.00">RENDERER</text>
</g>
<!-- heat&#45;&gt;renderer -->
<g id="edge5" class="edge">
<title>heat&#45;&gt;renderer</title>
<path fill="none" stroke="black" stroke-width="0.8" d="M393.08,-104.99C393.08,-78.98 393.08,-34 393.08,-34 393.08,-34 250.34,-34 250.34,-34"/>
<polygon fill="black" stroke="black" stroke-width="0.8" points="250.34,-30.5 240.34,-34 250.34,-37.5 250.34,-30.5"/>
<text text-anchor="middle" x="295.08" y="-76.6" font-family="Helvetica,sans-Serif" font-size="8.00" fill="#444444">z += h[i]×w</text>
</g>
<!-- adjacency&#45;&gt;heat -->
<g id="edge4" class="edge">
<title>adjacency&#45;&gt;heat</title>
<path fill="none" stroke="black" stroke-width="0.8" stroke-dasharray="5,2" d="M348.33,-284.57C348.33,-284.57 348.33,-151.01 348.33,-151.01"/>
<polygon fill="black" stroke="black" stroke-width="0.8" points="351.83,-151.01 348.33,-141.01 344.83,-151.01 351.83,-151.01"/>
<text text-anchor="middle" x="418.58" y="-210.1" font-family="Helvetica,sans-Serif" font-size="8.00" fill="#444444">diffuse/frame</text>
</g>
<!-- agents -->
<g id="node6" class="node">
<title>agents</title>
<polygon fill="white" stroke="black" points="319.08,-230 261.08,-230 261.08,-194 319.08,-194 319.08,-230"/>
<text text-anchor="middle" x="290.08" y="-214.8" font-family="Helvetica,sans-Serif" font-size="9.00">AGENTS</text>
<text text-anchor="middle" x="290.08" y="-204.8" font-family="Helvetica,sans-Serif" font-size="9.00">Friend×5</text>
</g>
<!-- adjacency&#45;&gt;agents -->
<g id="edge7" class="edge">
<title>adjacency&#45;&gt;agents</title>
<path fill="none" stroke="black" stroke-width="0.8" stroke-dasharray="5,2" d="M290.08,-284.42C290.08,-284.42 290.08,-240.04 290.08,-240.04"/>
<polygon fill="black" stroke="black" stroke-width="0.8" points="293.58,-240.04 290.08,-230.04 286.58,-240.04 293.58,-240.04"/>
<text text-anchor="middle" x="313.58" y="-254.6" font-family="Helvetica,sans-Serif" font-size="8.00" fill="#444444">N(v)</text>
</g>
<!-- pcb -->
<g id="node4" class="node">
<title>pcb</title>
<polygon fill="none" stroke="black" stroke-dasharray="5,2" points="187.08,-230 127.08,-230 127.08,-194 187.08,-194 187.08,-230"/>
<text text-anchor="middle" x="157.08" y="-214.8" font-family="Helvetica,sans-Serif" font-size="9.00">PCB</text>
<text text-anchor="middle" x="157.08" y="-204.8" font-family="Helvetica,sans-Serif" font-size="9.00">CONSOLE</text>
</g>
<!-- pcb&#45;&gt;heat -->
<g id="edge11" class="edge">
<title>pcb&#45;&gt;heat</title>
<path fill="none" stroke="black" stroke-width="0.8" stroke-dasharray="5,2" d="M180.58,-193.96C180.58,-181.44 180.58,-167 180.58,-167 180.58,-167 342.83,-167 342.83,-167 342.83,-167 342.83,-151.15 342.83,-151.15"/>
<polygon fill="black" stroke="black" stroke-width="0.8" points="346.33,-151.15 342.83,-141.15 339.33,-151.15 346.33,-151.15"/>
<text text-anchor="middle" x="327.08" y="-165.6" font-family="Helvetica,sans-Serif" font-size="8.00" fill="#444444">eval JS</text>
</g>
<!-- frontier -->
<g id="node7" class="node">
<title>frontier</title>
<polygon fill="none" stroke="black" stroke-dasharray="5,2" points="239.08,-141 161.08,-141 161.08,-105 239.08,-105 239.08,-141"/>
<text text-anchor="middle" x="200.08" y="-125.8" font-family="Helvetica,sans-Serif" font-size="9.00">FRONTIER</text>
<text text-anchor="middle" x="200.08" y="-115.8" font-family="Helvetica,sans-Serif" font-size="9.00">Anthropic API</text>
</g>
<!-- pcb&#45;&gt;frontier -->
<g id="edge9" class="edge">
<title>pcb&#45;&gt;frontier</title>
<path fill="none" stroke="black" stroke-width="0.8" stroke-dasharray="5,2" d="M167.58,-193.99C167.58,-193.99 167.58,-151.29 167.58,-151.29"/>
<polygon fill="black" stroke="black" stroke-width="0.8" points="171.08,-151.29 167.58,-141.29 164.08,-151.29 171.08,-151.29"/>
<text text-anchor="middle" x="253.08" y="-165.6" font-family="Helvetica,sans-Serif" font-size="8.00" fill="#444444">plain text</text>
</g>
<!-- user -->
<g id="node15" class="node">
<title>user</title>
<ellipse fill="white" stroke="black" cx="48.08" cy="-302.8" rx="48.17" ry="19.6"/>
<text text-anchor="middle" x="48.08" y="-305.6" font-family="Helvetica,sans-Serif" font-size="9.00">USER</text>
<text text-anchor="middle" x="48.08" y="-295.6" font-family="Helvetica,sans-Serif" font-size="9.00">draw / type</text>
</g>
<!-- renderer&#45;&gt;user -->
<g id="edge24" class="edge">
<title>renderer&#45;&gt;user</title>
<path fill="none" stroke="black" stroke-width="0.8" d="M173.75,-34C127.13,-34 48.08,-34 48.08,-34 48.08,-34 48.08,-272.6 48.08,-272.6"/>
<polygon fill="black" stroke="black" stroke-width="0.8" points="44.58,-272.6 48.08,-282.6 51.58,-272.6 44.58,-272.6"/>
<text text-anchor="middle" x="78.08" y="-165.6" font-family="Helvetica,sans-Serif" font-size="8.00" fill="#444444">viewport</text>
</g>
<!-- agents&#45;&gt;heat -->
<g id="edge6" class="edge">
<title>agents&#45;&gt;heat</title>
<path fill="none" stroke="black" stroke-width="0.8" stroke-dasharray="5,2" d="M319.13,-212C332.56,-212 345.58,-212 345.58,-212 345.58,-212 345.58,-151.01 345.58,-151.01"/>
<polygon fill="black" stroke="black" stroke-width="0.8" points="349.08,-151.01 345.58,-141.01 342.08,-151.01 349.08,-151.01"/>
<text text-anchor="middle" x="414.08" y="-165.6" font-family="Helvetica,sans-Serif" font-size="8.00" fill="#444444">+= 8.0/step</text>
</g>
<!-- frontier&#45;&gt;pcb -->
<g id="edge10" class="edge">
<title>frontier&#45;&gt;pcb</title>
<path fill="none" stroke="black" stroke-width="0.8" stroke-dasharray="5,2" d="M174.08,-141.01C174.08,-141.01 174.08,-183.71 174.08,-183.71"/>
<polygon fill="black" stroke="black" stroke-width="0.8" points="170.58,-183.71 174.08,-193.71 177.58,-183.71 170.58,-183.71"/>
<text text-anchor="middle" x="170.58" y="-165.6" font-family="Helvetica,sans-Serif" font-size="8.00" fill="#444444">reply→eval</text>
</g>
<!-- boot -->
<g id="node8" class="node">
<title>boot</title>
<polygon fill="white" stroke="#888888" points="749.58,-515.8 682.58,-515.8 682.58,-479.8 749.58,-479.8 749.58,-515.8"/>
<text text-anchor="middle" x="716.08" y="-500.6" font-family="Helvetica,sans-Serif" font-size="9.00" fill="#888888">BOOT</text>
<text text-anchor="middle" x="716.08" y="-490.6" font-family="Helvetica,sans-Serif" font-size="9.00" fill="#888888">SEQUENCE</text>
</g>
<!-- loader -->
<g id="node9" class="node">
<title>loader</title>
<polygon fill="white" stroke="#888888" points="753.08,-423.8 679.08,-423.8 679.08,-385.8 753.08,-385.8 753.08,-423.8"/>
<text text-anchor="middle" x="716.08" y="-412.6" font-family="Helvetica,sans-Serif" font-size="9.00" fill="#888888">PROGRAM</text>
<text text-anchor="middle" x="716.08" y="-402.6" font-family="Helvetica,sans-Serif" font-size="9.00" fill="#888888">LOADER</text>
<text text-anchor="middle" x="716.08" y="-392.6" font-family="Helvetica,sans-Serif" font-size="9.00" fill="#888888">&lt;script src&gt;</text>
</g>
<!-- boot&#45;&gt;loader -->
<g id="edge12" class="edge">
<title>boot&#45;&gt;loader</title>
<path fill="none" stroke="black" stroke-width="0.8" d="M716.08,-479.43C716.08,-479.43 716.08,-434.1 716.08,-434.1"/>
<polygon fill="black" stroke="black" stroke-width="0.8" points="719.58,-434.1 716.08,-424.1 712.58,-434.1 719.58,-434.1"/>
</g>
<!-- p1 -->
<g id="node10" class="node">
<title>p1</title>
<polygon fill="white" stroke="#666666" points="640.08,-320.8 560.08,-320.8 560.08,-284.8 640.08,-284.8 640.08,-320.8"/>
<text text-anchor="middle" x="600.08" y="-300.6" font-family="Helvetica,sans-Serif" font-size="9.00" fill="#666666">BUBBLE_SORT</text>
</g>
<!-- loader&#45;&gt;p1 -->
<g id="edge13" class="edge">
<title>loader&#45;&gt;p1</title>
<path fill="none" stroke="black" stroke-width="0.8" d="M679.06,-398C645.11,-398 600.08,-398 600.08,-398 600.08,-398 600.08,-331.15 600.08,-331.15"/>
<polygon fill="black" stroke="black" stroke-width="0.8" points="603.58,-331.15 600.08,-321.15 596.58,-331.15 603.58,-331.15"/>
</g>
<!-- p2 -->
<g id="node11" class="node">
<title>p2</title>
<polygon fill="white" stroke="#666666" points="1002.08,-320.8 886.08,-320.8 886.08,-284.8 1002.08,-284.8 1002.08,-320.8"/>
<text text-anchor="middle" x="944.08" y="-300.6" font-family="Helvetica,sans-Serif" font-size="9.00" fill="#666666">REACTION_DIFFUSION</text>
</g>
<!-- loader&#45;&gt;p2 -->
<g id="edge14" class="edge">
<title>loader&#45;&gt;p2</title>
<path fill="none" stroke="black" stroke-width="0.8" d="M753.22,-411C817.83,-411 944.08,-411 944.08,-411 944.08,-411 944.08,-331.15 944.08,-331.15"/>
<polygon fill="black" stroke="black" stroke-width="0.8" points="947.58,-331.15 944.08,-321.15 940.58,-331.15 947.58,-331.15"/>
</g>
<!-- p3 -->
<g id="node12" class="node">
<title>p3</title>
<polygon fill="white" stroke="#666666" points="524.08,-320.8 470.08,-320.8 470.08,-284.8 524.08,-284.8 524.08,-320.8"/>
<text text-anchor="middle" x="497.08" y="-300.6" font-family="Helvetica,sans-Serif" font-size="9.00" fill="#666666">LORENZ</text>
</g>
<!-- loader&#45;&gt;p3 -->
<g id="edge15" class="edge">
<title>loader&#45;&gt;p3</title>
<path fill="none" stroke="black" stroke-width="0.8" d="M678.93,-410C616.45,-410 497.08,-410 497.08,-410 497.08,-410 497.08,-330.98 497.08,-330.98"/>
<polygon fill="black" stroke="black" stroke-width="0.8" points="500.58,-330.98 497.08,-320.98 493.58,-330.98 500.58,-330.98"/>
</g>
<!-- p4 -->
<g id="node13" class="node">
<title>p4</title>
<polygon fill="white" stroke="#666666" points="755.58,-320.8 676.58,-320.8 676.58,-284.8 755.58,-284.8 755.58,-320.8"/>
<text text-anchor="middle" x="716.08" y="-300.6" font-family="Helvetica,sans-Serif" font-size="9.00" fill="#666666">CONWAY_LIFE</text>
</g>
<!-- loader&#45;&gt;p4 -->
<g id="edge16" class="edge">
<title>loader&#45;&gt;p4</title>
<path fill="none" stroke="black" stroke-width="0.8" d="M716.08,-385.61C716.08,-385.61 716.08,-330.87 716.08,-330.87"/>
<polygon fill="black" stroke="black" stroke-width="0.8" points="719.58,-330.87 716.08,-320.87 712.58,-330.87 719.58,-330.87"/>
</g>
<!-- p5 -->
<g id="node14" class="node">
<title>p5</title>
<polygon fill="none" stroke="#666666" stroke-dasharray="5,2" points="850.08,-320.8 792.08,-320.8 792.08,-284.8 850.08,-284.8 850.08,-320.8"/>
<text text-anchor="middle" x="821.08" y="-300.6" font-family="Helvetica,sans-Serif" font-size="9.00" fill="#666666">…9 more</text>
</g>
<!-- loader&#45;&gt;p5 -->
<g id="edge17" class="edge">
<title>loader&#45;&gt;p5</title>
<path fill="none" stroke="black" stroke-width="0.8" d="M753.1,-398C783.33,-398 821.08,-398 821.08,-398 821.08,-398 821.08,-331.15 821.08,-331.15"/>
<polygon fill="black" stroke="black" stroke-width="0.8" points="824.58,-331.15 821.08,-321.15 817.58,-331.15 824.58,-331.15"/>
</g>
<!-- p1&#45;&gt;heat -->
<g id="edge18" class="edge">
<title>p1&#45;&gt;heat</title>
<path fill="none" stroke="black" stroke-width="0.8" stroke-dasharray="5,2" d="M613.42,-284.53C613.42,-239.91 613.42,-129 613.42,-129 613.42,-129 456.14,-129 456.14,-129"/>
<polygon fill="black" stroke="black" stroke-width="0.8" points="456.14,-125.5 446.14,-129 456.14,-132.5 456.14,-125.5"/>
<text text-anchor="middle" x="644.58" y="-210.1" font-family="Helvetica,sans-Serif" font-size="8.00" fill="#444444">heat[i]+=</text>
</g>
<!-- p1&#45;&gt;pcb -->
<g id="edge23" class="edge">
<title>p1&#45;&gt;pcb</title>
<path fill="none" stroke="black" stroke-width="0.8" stroke-dasharray="5,2" d="M586.75,-284.57C586.75,-271.43 586.75,-256 586.75,-256 586.75,-256 167.08,-256 167.08,-256 167.08,-256 167.08,-240.15 167.08,-240.15"/>
<polygon fill="black" stroke="black" stroke-width="0.8" points="170.58,-240.15 167.08,-230.15 163.58,-240.15 170.58,-240.15"/>
<text text-anchor="middle" x="578.58" y="-254.6" font-family="Helvetica,sans-Serif" font-size="8.00" fill="#444444">wrap run()</text>
</g>
<!-- p2&#45;&gt;heat -->
<g id="edge19" class="edge">
<title>p2&#45;&gt;heat</title>
<path fill="none" stroke="black" stroke-width="0.8" stroke-dasharray="5,2" d="M944.08,-284.76C944.08,-237.01 944.08,-111 944.08,-111 944.08,-111 456.17,-111 456.17,-111"/>
<polygon fill="black" stroke="black" stroke-width="0.8" points="456.17,-107.5 446.17,-111 456.17,-114.5 456.17,-107.5"/>
</g>
<!-- p3&#45;&gt;heat -->
<g id="edge20" class="edge">
<title>p3&#45;&gt;heat</title>
<path fill="none" stroke="black" stroke-width="0.8" stroke-dasharray="5,2" d="M497.08,-284.52C497.08,-241.03 497.08,-135 497.08,-135 497.08,-135 456.3,-135 456.3,-135"/>
<polygon fill="black" stroke="black" stroke-width="0.8" points="456.3,-131.5 446.3,-135 456.3,-138.5 456.3,-131.5"/>
</g>
<!-- p4&#45;&gt;heat -->
<g id="edge21" class="edge">
<title>p4&#45;&gt;heat</title>
<path fill="none" stroke="black" stroke-width="0.8" stroke-dasharray="5,2" d="M716.08,-284.57C716.08,-238.86 716.08,-123 716.08,-123 716.08,-123 456.42,-123 456.42,-123"/>
<polygon fill="black" stroke="black" stroke-width="0.8" points="456.42,-119.5 446.42,-123 456.42,-126.5 456.42,-119.5"/>
</g>
<!-- p5&#45;&gt;heat -->
<g id="edge22" class="edge">
<title>p5&#45;&gt;heat</title>
<path fill="none" stroke="black" stroke-width="0.8" stroke-dasharray="5,2" d="M821.08,-284.65C821.08,-237.89 821.08,-117 821.08,-117 821.08,-117 456.42,-117 456.42,-117"/>
<polygon fill="black" stroke="black" stroke-width="0.8" points="456.42,-113.5 446.42,-117 456.42,-120.5 456.42,-113.5"/>
</g>
<!-- user&#45;&gt;manifold -->
<g id="edge1" class="edge">
<title>user&#45;&gt;manifold</title>
<path fill="none" stroke="black" stroke-width="0.8" d="M92.09,-311C141.72,-311 215.58,-311 215.58,-311 215.58,-311 215.58,-376.71 215.58,-376.71"/>
<polygon fill="black" stroke="black" stroke-width="0.8" points="212.08,-376.71 215.58,-386.71 219.08,-376.71 212.08,-376.71"/>
<text text-anchor="middle" x="133.08" y="-357.4" font-family="Helvetica,sans-Serif" font-size="8.00" fill="#444444">seedPoints</text>
</g>
<!-- user&#45;&gt;pcb -->
<g id="edge8" class="edge">
<title>user&#45;&gt;pcb</title>
<path fill="none" stroke="black" stroke-width="0.8" d="M96.13,-302C121.36,-302 147.08,-302 147.08,-302 147.08,-302 147.08,-240.21 147.08,-240.21"/>
<polygon fill="black" stroke="black" stroke-width="0.8" points="150.58,-240.21 147.08,-230.21 143.58,-240.21 150.58,-240.21"/>
<text text-anchor="middle" x="148.08" y="-254.6" font-family="Helvetica,sans-Serif" font-size="8.00" fill="#444444">cmd</text>
</g>
</g>
</svg>
