<?xml version="1.0" encoding="UTF-8" standalone="no"?>
<!DOCTYPE svg PUBLIC "-//W3C//DTD SVG 1.1//EN"
 "http://www.w3.org/Graphics/SVG/1.1/DTD/svg11.dtd">
<!-- Generated by graphviz version 2.43.0 (0)
 -->
<!-- Title: dataflow Pages: 1 -->
<svg width="1832pt" height="394pt"
 viewBox="0.00 0.00 1831.60 393.60" xmlns="http://www.w3.org/2000/svg" xmlns:xlink="http://www.w3.org/1999/xlink">
<g id="graph0" class="graph" transform="scale(1 1) rotate(0) translate(28.8 364.8)">
<title>dataflow</title>
<polygon fill="white" stroke="transparent" points="-28.8,28.8 -28.8,-364.8 1802.8,-364.8 1802.8,28.8 -28.8,28.8"/>
<!-- draw -->
<g id="node1" class="node">
<title>draw</title>
<polygon fill="white" stroke="black" points="83,-298 0,-298 0,-262 83,-262 83,-298"/>
<text text-anchor="middle" x="41.5" y="-282.8" font-family="Helvetica,sans-Serif" font-size="9.00">DRAW</text>
<text text-anchor="middle" x="41.5" y="-272.8" font-family="Helvetica,sans-Serif" font-size="9.00">→ seedPoints[]</text>
</g>
<!-- sample -->
<g id="node2" class="node">
<title>sample</title>
<polygon fill="white" stroke="black" points="210,-298 134,-298 134,-262 210,-262 210,-298"/>
<text text-anchor="middle" x="172" y="-282.8" font-family="Helvetica,sans-Serif" font-size="9.00">SAMPLE</text>
<text text-anchor="middle" x="172" y="-272.8" font-family="Helvetica,sans-Serif" font-size="9.00">m=32 points</text>
</g>
<!-- draw&#45;&gt;sample -->
<g id="edge1" class="edge">
<title>draw&#45;&gt;sample</title>
<path fill="none" stroke="black" stroke-width="0.8" d="M83.16,-280C95.92,-280 110.13,-280 123.33,-280"/>
<polygon fill="black" stroke="black" stroke-width="0.8" points="123.66,-283.5 133.66,-280 123.66,-276.5 123.66,-283.5"/>
</g>
<!-- sym2 -->
<g id="node3" class="node">
<title>sym2</title>
<polygon fill="#f0f0f0" stroke="black" points="396,-299 328,-299 328,-261 396,-261 396,-299"/>
<text text-anchor="middle" x="362" y="-287.8" font-family="Helvetica,sans-Serif" font-size="9.00">SYM²(X)</text>
<text text-anchor="middle" x="362" y="-277.8" font-family="Helvetica,sans-Serif" font-size="9.00">u×v grid</text>
<text text-anchor="middle" x="362" y="-267.8" font-family="Helvetica,sans-Serif" font-size="9.00">m² vertices</text>
</g>
<!-- sample&#45;&gt;sym2 -->
<g id="edge2" class="edge">
<title>sample&#45;&gt;sym2</title>
<path fill="none" stroke="black" stroke-width="0.8" d="M210.14,-280C241.04,-280 285.07,-280 317.59,-280"/>
<polygon fill="black" stroke="black" stroke-width="0.8" points="317.71,-283.5 327.71,-280 317.71,-276.5 317.71,-283.5"/>
<text text-anchor="middle" x="269" y="-282.6" font-family="Helvetica,sans-Serif" font-size="8.00" fill="#444444">pairs {X[u],X[v]}</text>
</g>
<!-- embed -->
<g id="node4" class="node">
<title>embed</title>
<polygon fill="#f0f0f0" stroke="black" points="571,-299 488,-299 488,-261 571,-261 571,-299"/>
<text text-anchor="middle" x="529.5" y="-287.8" font-family="Helvetica,sans-Serif" font-size="9.00">EMBED → R³</text>
<text text-anchor="middle" x="529.5" y="-277.8" font-family="Helvetica,sans-Serif" font-size="9.00">(mid_x, mid_y,</text>
<text text-anchor="middle" x="529.5" y="-267.8" font-family="Helvetica,sans-Serif" font-size="9.00">|p−q|)</text>
</g>
<!-- sym2&#45;&gt;embed -->
<g id="edge3" class="edge">
<title>sym2&#45;&gt;embed</title>
<path fill="none" stroke="black" stroke-width="0.8" d="M396.09,-280C419.41,-280 451.08,-280 477.59,-280"/>
<polygon fill="black" stroke="black" stroke-width="0.8" points="477.85,-283.5 487.85,-280 477.85,-276.5 477.85,-283.5"/>
<text text-anchor="middle" x="442" y="-282.6" font-family="Helvetica,sans-Serif" font-size="8.00" fill="#444444">mid + sep</text>
</g>
<!-- tris -->
<g id="node5" class="node">
<title>tris</title>
<polygon fill="white" stroke="black" points="759,-263 676,-263 676,-227 759,-227 759,-263"/>
<text text-anchor="middle" x="717.5" y="-247.8" font-family="Helvetica,sans-Serif" font-size="9.00">TRIANGULATE</text>
<text text-anchor="middle" x="717.5" y="-237.8" font-family="Helvetica,sans-Serif" font-size="9.00">2(m−1)² faces</text>
</g>
<!-- embed&#45;&gt;tris -->
<g id="edge4" class="edge">
<title>embed&#45;&gt;tris</title>
<path fill="none" stroke="black" stroke-width="0.8" d="M571.32,-272.32C599.06,-267.1 635.96,-260.16 665.62,-254.57"/>
<polygon fill="black" stroke="black" stroke-width="0.8" points="666.6,-257.95 675.78,-252.66 665.3,-251.07 666.6,-257.95"/>
</g>
<!-- seam -->
<g id="node12" class="node">
<title>seam</title>
<polygon fill="none" stroke="black" stroke-dasharray="5,2" points="876,-336 784,-336 784,-300 876,-300 876,-336"/>
<text text-anchor="middle" x="830" y="-320.8" font-family="Helvetica,sans-Serif" font-size="9.00">SEAM &#160;Δ={u=v}</text>
<text text-anchor="middle" x="830" y="-310.8" font-family="Helvetica,sans-Serif" font-size="9.00">red line</text>
</g>
<!-- embed&#45;&gt;seam -->
<g id="edge12" class="edge">
<title>embed&#45;&gt;seam</title>
<path fill="none" stroke="black" stroke-width="0.8" d="M571.07,-285.16C623.4,-291.83 714.66,-303.44 773.42,-310.92"/>
<polygon fill="black" stroke="black" stroke-width="0.8" points="773.27,-314.43 783.64,-312.23 774.16,-307.49 773.27,-314.43"/>
<text text-anchor="middle" x="623.5" y="-296.6" font-family="Helvetica,sans-Serif" font-size="8.00" fill="#444444">u=v diagonal</text>
</g>
<!-- adj -->
<g id="node6" class="node">
<title>adj</title>
<polygon fill="white" stroke="black" points="969,-263 901,-263 901,-227 969,-227 969,-263"/>
<text text-anchor="middle" x="935" y="-247.8" font-family="Helvetica,sans-Serif" font-size="9.00">ADJACENCY</text>
<text text-anchor="middle" x="935" y="-237.8" font-family="Helvetica,sans-Serif" font-size="9.00">G=(V,E)</text>
</g>
<!-- tris&#45;&gt;adj -->
<g id="edge5" class="edge">
<title>tris&#45;&gt;adj</title>
<path fill="none" stroke="black" stroke-width="0.8" d="M759.03,-245C796.48,-245 851.96,-245 890.36,-245"/>
<polygon fill="black" stroke="black" stroke-width="0.8" points="890.71,-248.5 900.71,-245 890.71,-241.5 890.71,-248.5"/>
</g>
<!-- hbuf -->
<g id="node7" class="node">
<title>hbuf</title>
<polygon fill="#e8e8e8" stroke="black" stroke-width="1.5" points="1297,-201 1219,-201 1219,-165 1297,-165 1297,-201"/>
<text text-anchor="middle" x="1258" y="-185.8" font-family="Helvetica,sans-Serif" font-size="9.00">HEAT BUFFER</text>
<text text-anchor="middle" x="1258" y="-175.8" font-family="Helvetica,sans-Serif" font-size="9.00">h : V → R≥0</text>
</g>
<!-- adj&#45;&gt;hbuf -->
<g id="edge6" class="edge">
<title>adj&#45;&gt;hbuf</title>
<path fill="none" stroke="black" stroke-width="0.8" d="M968.74,-226.79C987.78,-217.1 1012.57,-205.98 1036,-200 1094.12,-185.17 1163.38,-182.1 1208.68,-181.96"/>
<polygon fill="black" stroke="black" stroke-width="0.8" points="1208.81,-185.46 1218.82,-181.98 1208.82,-178.46 1208.81,-185.46"/>
<text text-anchor="middle" x="1077.5" y="-202.6" font-family="Helvetica,sans-Serif" font-size="8.00" fill="#444444">init zeros</text>
</g>
<!-- agents -->
<g id="node14" class="node">
<title>agents</title>
<polygon fill="none" stroke="black" stroke-dasharray="5,2" points="1119,-263 1036,-263 1036,-227 1119,-227 1119,-263"/>
<text text-anchor="middle" x="1077.5" y="-247.8" font-family="Helvetica,sans-Serif" font-size="9.00">AGENTS</text>
<text text-anchor="middle" x="1077.5" y="-237.8" font-family="Helvetica,sans-Serif" font-size="9.00">heat&#45;seek walk</text>
</g>
<!-- adj&#45;&gt;agents -->
<g id="edge16" class="edge">
<title>adj&#45;&gt;agents</title>
<path fill="none" stroke="black" stroke-width="0.8" stroke-dasharray="5,2" d="M969.3,-245C986.14,-245 1006.95,-245 1025.73,-245"/>
<polygon fill="black" stroke="black" stroke-width="0.8" points="1025.92,-248.5 1035.92,-245 1025.92,-241.5 1025.92,-248.5"/>
<text text-anchor="middle" x="1002.5" y="-247.6" font-family="Helvetica,sans-Serif" font-size="8.00" fill="#444444">N(v)</text>
</g>
<!-- diffuse -->
<g id="node8" class="node">
<title>diffuse</title>
<polygon fill="#e8e8e8" stroke="black" points="1484,-262 1367,-262 1367,-224 1484,-224 1484,-262"/>
<text text-anchor="middle" x="1425.5" y="-250.8" font-family="Helvetica,sans-Serif" font-size="9.00">DIFFUSE</text>
<text text-anchor="middle" x="1425.5" y="-240.8" font-family="Helvetica,sans-Serif" font-size="9.00">h&#39;[i] = avg(N(i))×0.96</text>
<text text-anchor="middle" x="1425.5" y="-230.8" font-family="Helvetica,sans-Serif" font-size="9.00">per frame</text>
</g>
<!-- hbuf&#45;&gt;diffuse -->
<g id="edge7" class="edge">
<title>hbuf&#45;&gt;diffuse</title>
<path fill="none" stroke="black" stroke-width="0.8" d="M1297.39,-192.34C1311.56,-196.13 1327.65,-200.83 1342,-206 1353.08,-209.99 1364.75,-214.82 1375.71,-219.66"/>
<polygon fill="black" stroke="black" stroke-width="0.8" points="1374.58,-222.98 1385.13,-223.89 1377.44,-216.6 1374.58,-222.98"/>
</g>
<!-- diffuse&#45;&gt;hbuf -->
<g id="edge8" class="edge">
<title>diffuse&#45;&gt;hbuf</title>
<path fill="none" stroke="black" stroke-width="0.8" stroke-dasharray="5,2" d="M1371.91,-223.93C1351.12,-216.4 1327.38,-207.79 1307.06,-200.42"/>
<polygon fill="black" stroke="black" stroke-width="0.8" points="1307.98,-197.03 1297.39,-196.92 1305.59,-203.61 1307.98,-197.03"/>
<text text-anchor="middle" x="1332" y="-215.6" font-family="Helvetica,sans-Serif" font-size="8.00" fill="#444444">h←h&#39;</text>
</g>
<!-- deform -->
<g id="node10" class="node">
<title>deform</title>
<polygon fill="white" stroke="black" points="1631,-261 1548,-261 1548,-225 1631,-225 1631,-261"/>
<text text-anchor="middle" x="1589.5" y="-245.8" font-family="Helvetica,sans-Serif" font-size="9.00">DEFORM</text>
<text text-anchor="middle" x="1589.5" y="-235.8" font-family="Helvetica,sans-Serif" font-size="9.00">z[i] += h[i]×w</text>
</g>
<!-- diffuse&#45;&gt;deform -->
<g id="edge9" class="edge">
<title>diffuse&#45;&gt;deform</title>
<path fill="none" stroke="black" stroke-width="0.8" d="M1484.07,-243C1501.54,-243 1520.61,-243 1537.61,-243"/>
<polygon fill="black" stroke="black" stroke-width="0.8" points="1537.89,-246.5 1547.89,-243 1537.89,-239.5 1537.89,-246.5"/>
<text text-anchor="middle" x="1516" y="-245.6" font-family="Helvetica,sans-Serif" font-size="8.00" fill="#444444">h[i]</text>
</g>
<!-- oracle -->
<g id="node9" class="node">
<title>oracle</title>
<polygon fill="white" stroke="black" points="1467,-114 1384,-114 1384,-78 1467,-78 1467,-114"/>
<text text-anchor="middle" x="1425.5" y="-98.8" font-family="Helvetica,sans-Serif" font-size="9.00">ORACLE</text>
<text text-anchor="middle" x="1425.5" y="-88.8" font-family="Helvetica,sans-Serif" font-size="9.00">w = eval(expr)</text>
</g>
<!-- oracle&#45;&gt;deform -->
<g id="edge10" class="edge">
<title>oracle&#45;&gt;deform</title>
<path fill="none" stroke="black" stroke-width="0.8" d="M1446.36,-114.03C1475.03,-140.03 1528.11,-188.2 1560.67,-217.74"/>
<polygon fill="black" stroke="black" stroke-width="0.8" points="1558.72,-220.7 1568.47,-224.83 1563.42,-215.52 1558.72,-220.7"/>
<text text-anchor="middle" x="1516" y="-184.6" font-family="Helvetica,sans-Serif" font-size="8.00" fill="#444444">w</text>
</g>
<!-- render -->
<g id="node11" class="node">
<title>render</title>
<polygon fill="white" stroke="black" points="1774,-314 1682,-314 1682,-278 1774,-278 1774,-314"/>
<text text-anchor="middle" x="1728" y="-298.8" font-family="Helvetica,sans-Serif" font-size="9.00">RENDER</text>
<text text-anchor="middle" x="1728" y="-288.8" font-family="Helvetica,sans-Serif" font-size="9.00">Three.js / WebGL</text>
</g>
<!-- deform&#45;&gt;render -->
<g id="edge11" class="edge">
<title>deform&#45;&gt;render</title>
<path fill="none" stroke="black" stroke-width="0.8" d="M1631.08,-258.76C1643.98,-263.77 1658.47,-269.39 1672.2,-274.72"/>
<polygon fill="black" stroke="black" stroke-width="0.8" points="1670.96,-278 1681.55,-278.35 1673.5,-271.47 1670.96,-278"/>
</g>
<!-- render&#45;&gt;draw -->
<g id="edge17" class="edge">
<title>render&#45;&gt;draw</title>
<path fill="none" stroke="black" stroke-width="0.8" stroke-dasharray="1,5" d="M1712.88,-277.72C1695.83,-257.05 1665.17,-224.04 1631,-207 1496.04,-139.68 1447.23,-160.39 1297,-147 780.36,-100.96 638.79,-124.74 134,-244 119.56,-247.41 104.37,-252.66 90.61,-258.1"/>
<polygon fill="black" stroke="black" stroke-width="0.8" points="89.28,-254.86 81.34,-261.88 91.92,-261.35 89.28,-254.86"/>
<text text-anchor="middle" x="935" y="-127.6" font-family="Helvetica,sans-Serif" font-size="8.00" fill="#444444">user sees</text>
</g>
<!-- seam&#45;&gt;render -->
<g id="edge13" class="edge">
<title>seam&#45;&gt;render</title>
<path fill="none" stroke="black" stroke-width="0.8" d="M876.23,-318C910.59,-318 959.02,-318 1001.5,-318 1001.5,-318 1001.5,-318 1590.5,-318 1617.5,-318 1647.13,-313.75 1671.87,-308.99"/>
<polygon fill="black" stroke="black" stroke-width="0.8" points="1672.68,-312.4 1681.79,-307 1671.3,-305.53 1672.68,-312.4"/>
</g>
<!-- progs -->
<g id="node13" class="node">
<title>progs</title>
<polygon fill="none" stroke="black" stroke-dasharray="5,2" points="1114,-36 1041,-36 1041,0 1114,0 1114,-36"/>
<text text-anchor="middle" x="1077.5" y="-20.8" font-family="Helvetica,sans-Serif" font-size="9.00">PROGRAMS</text>
<text text-anchor="middle" x="1077.5" y="-10.8" font-family="Helvetica,sans-Serif" font-size="9.00">heat[i] += x</text>
</g>
<!-- progs&#45;&gt;hbuf -->
<g id="edge14" class="edge">
<title>progs&#45;&gt;hbuf</title>
<path fill="none" stroke="black" stroke-width="0.8" stroke-dasharray="5,2" d="M1098.28,-36.29C1130.27,-65.85 1193.4,-124.21 1229.66,-157.73"/>
<polygon fill="black" stroke="black" stroke-width="0.8" points="1227.68,-160.66 1237.4,-164.88 1232.43,-155.52 1227.68,-160.66"/>
<text text-anchor="middle" x="1169" y="-122.6" font-family="Helvetica,sans-Serif" font-size="8.00" fill="#444444">additive +=</text>
</g>
<!-- agents&#45;&gt;hbuf -->
<g id="edge15" class="edge">
<title>agents&#45;&gt;hbuf</title>
<path fill="none" stroke="black" stroke-width="0.8" stroke-dasharray="5,2" d="M1119,-230.93C1145.78,-221.63 1181,-209.4 1209.16,-199.62"/>
<polygon fill="black" stroke="black" stroke-width="0.8" points="1210.5,-202.86 1218.79,-196.27 1208.2,-196.25 1210.5,-202.86"/>
<text text-anchor="middle" x="1169" y="-223.6" font-family="Helvetica,sans-Serif" font-size="8.00" fill="#444444">+= 8.0/step</text>
</g>
</g>
</svg>
