<?xml version="1.0" encoding="UTF-8" standalone="no"?>
<!DOCTYPE svg PUBLIC "-//W3C//DTD SVG 1.1//EN"
 "http://www.w3.org/Graphics/SVG/1.1/DTD/svg11.dtd">
<!-- Generated by graphviz version 2.43.0 (0)
 -->
<!-- Title: heatgraph Pages: 1 -->
<svg width="938pt" height="738pt"
 viewBox="0.00 0.00 938.29 738.00" xmlns="http://www.w3.org/2000/svg" xmlns:xlink="http://www.w3.org/1999/xlink">
<g id="graph0" class="graph" transform="scale(1 1) rotate(0) translate(36 702)">
<title>heatgraph</title>
<polygon fill="white" stroke="transparent" points="-36,36 -36,-702 902.29,-702 902.29,36 -36,36"/>
<text text-anchor="middle" x="136" y="-654" font-family="Helvetica,sans-Serif" font-weight="bold" font-size="10.00">HEAT DIFFUSION — one frame step</text>
<text text-anchor="middle" x="136" y="-643" font-family="Helvetica,sans-Serif" font-weight="bold" font-size="10.00">h&#39;[i] = ( h[i] + Σ h[N(i)] ) / ( |N(i)| + 1 ) × 0.96</text>
<!-- v00 -->
<g id="node1" class="node">
<title>v00</title>
<ellipse fill="white" stroke="black" cx="404" cy="-609" rx="27" ry="27"/>
<text text-anchor="middle" x="404" y="-607.1" font-family="Helvetica,sans-Serif" font-size="8.00">0</text>
</g>
<!-- v01 -->
<g id="node2" class="node">
<title>v01</title>
<ellipse fill="white" stroke="black" cx="262" cy="-512" rx="27" ry="27"/>
<text text-anchor="middle" x="262" y="-510.1" font-family="Helvetica,sans-Serif" font-size="8.00">0</text>
</g>
<!-- v00&#45;&#45;v01 -->
<g id="edge1" class="edge">
<title>v00&#45;&#45;v01</title>
<path fill="none" stroke="#888888" stroke-width="0.8" d="M381.81,-593.16C355.14,-575.31 310.64,-545.54 284.03,-527.74"/>
</g>
<!-- v10 -->
<g id="node5" class="node">
<title>v10</title>
<ellipse fill="#dddddd" stroke="black" cx="558" cy="-512" rx="27" ry="27"/>
<text text-anchor="middle" x="558" y="-510.1" font-family="Helvetica,sans-Serif" font-size="8.00">20</text>
</g>
<!-- v00&#45;&#45;v10 -->
<g id="edge13" class="edge">
<title>v00&#45;&#45;v10</title>
<path fill="none" stroke="#888888" stroke-width="0.8" d="M426.72,-593.98C455.92,-575.97 506.31,-544.89 535.43,-526.92"/>
</g>
<!-- v11 -->
<g id="node6" class="node">
<title>v11</title>
<ellipse fill="#888888" stroke="black" stroke-width="2" cx="404" cy="-415" rx="27" ry="27"/>
<text text-anchor="middle" x="404" y="-413.1" font-family="Helvetica,sans-Serif" font-size="8.00" fill="white">300</text>
</g>
<!-- v00&#45;&#45;v11 -->
<g id="edge25" class="edge">
<title>v00&#45;&#45;v11</title>
<path fill="none" stroke="#888888" stroke-width="0.8" d="M404,-581.71C404,-545.04 404,-478.94 404,-442.28"/>
</g>
<!-- v02 -->
<g id="node3" class="node">
<title>v02</title>
<ellipse fill="white" stroke="black" cx="132" cy="-415" rx="27" ry="27"/>
<text text-anchor="middle" x="132" y="-413.1" font-family="Helvetica,sans-Serif" font-size="8.00">0</text>
</g>
<!-- v01&#45;&#45;v02 -->
<g id="edge2" class="edge">
<title>v01&#45;&#45;v02</title>
<path fill="none" stroke="#888888" stroke-width="0.8" d="M240.53,-495.31C216.45,-477.71 177.6,-449.32 153.5,-431.71"/>
</g>
<!-- v01&#45;&#45;v11 -->
<g id="edge14" class="edge">
<title>v01&#45;&#45;v11</title>
<path fill="none" stroke="#888888" stroke-width="0.8" d="M284.19,-496.16C310.86,-478.31 355.36,-448.54 381.97,-430.74"/>
</g>
<!-- v12 -->
<g id="node7" class="node">
<title>v12</title>
<ellipse fill="#cccccc" stroke="black" cx="211" cy="-318" rx="27" ry="27"/>
<text text-anchor="middle" x="211" y="-316.1" font-family="Helvetica,sans-Serif" font-size="8.00">80</text>
</g>
<!-- v01&#45;&#45;v12 -->
<g id="edge26" class="edge">
<title>v01&#45;&#45;v12</title>
<path fill="none" stroke="#888888" stroke-width="0.8" d="M255.23,-485.5C245.45,-448.68 227.47,-381.01 217.72,-344.3"/>
</g>
<!-- v03 -->
<g id="node4" class="node">
<title>v03</title>
<ellipse fill="white" stroke="black" cx="27" cy="-318" rx="27" ry="27"/>
<text text-anchor="middle" x="27" y="-316.1" font-family="Helvetica,sans-Serif" font-size="8.00">0</text>
</g>
<!-- v02&#45;&#45;v03 -->
<g id="edge3" class="edge">
<title>v02&#45;&#45;v03</title>
<path fill="none" stroke="#888888" stroke-width="0.8" d="M112.25,-396.13C93.48,-379.15 65.4,-353.75 46.66,-336.79"/>
</g>
<!-- v02&#45;&#45;v12 -->
<g id="edge15" class="edge">
<title>v02&#45;&#45;v12</title>
<path fill="none" stroke="#888888" stroke-width="0.8" d="M149.14,-393.39C162.48,-377.34 180.9,-355.2 194.16,-339.25"/>
</g>
<!-- v13 -->
<g id="node8" class="node">
<title>v13</title>
<ellipse fill="#eeeeee" stroke="black" cx="119" cy="-221" rx="27" ry="27"/>
<text text-anchor="middle" x="119" y="-219.1" font-family="Helvetica,sans-Serif" font-size="8.00">10</text>
</g>
<!-- v02&#45;&#45;v13 -->
<g id="edge27" class="edge">
<title>v02&#45;&#45;v13</title>
<path fill="none" stroke="#888888" stroke-width="0.8" d="M130.22,-387.71C127.73,-350.94 123.24,-284.57 120.76,-247.98"/>
</g>
<!-- v03&#45;&#45;v13 -->
<g id="edge16" class="edge">
<title>v03&#45;&#45;v13</title>
<path fill="none" stroke="#888888" stroke-width="0.8" d="M45.62,-297.78C61.58,-281.29 84.46,-257.67 100.41,-241.2"/>
</g>
<!-- v10&#45;&#45;v11 -->
<g id="edge4" class="edge">
<title>v10&#45;&#45;v11</title>
<path fill="none" stroke="#888888" stroke-width="0.8" d="M535.28,-496.98C506.08,-478.97 455.69,-447.89 426.57,-429.92"/>
</g>
<!-- v20 -->
<g id="node9" class="node">
<title>v20</title>
<ellipse fill="white" stroke="black" cx="760" cy="-415" rx="27" ry="27"/>
<text text-anchor="middle" x="760" y="-413.1" font-family="Helvetica,sans-Serif" font-size="8.00">5</text>
</g>
<!-- v10&#45;&#45;v20 -->
<g id="edge17" class="edge">
<title>v10&#45;&#45;v20</title>
<path fill="none" stroke="#888888" stroke-width="0.8" d="M582.37,-499.54C621.3,-481.23 697.08,-445.59 735.86,-427.35"/>
</g>
<!-- v21 -->
<g id="node10" class="node">
<title>v21</title>
<ellipse fill="#aaaaaa" stroke="black" cx="712" cy="-318" rx="27" ry="27"/>
<text text-anchor="middle" x="712" y="-316.1" font-family="Helvetica,sans-Serif" font-size="8.00" fill="white">150</text>
</g>
<!-- v10&#45;&#45;v21 -->
<g id="edge28" class="edge">
<title>v10&#45;&#45;v21</title>
<path fill="none" stroke="#888888" stroke-width="0.8" d="M574.48,-490.45C604.04,-453.59 665.76,-376.65 695.41,-339.69"/>
</g>
<!-- v11&#45;&#45;v12 -->
<g id="edge5" class="edge">
<title>v11&#45;&#45;v12</title>
<path fill="none" stroke="#888888" stroke-width="0.8" d="M379.95,-402.16C342.86,-383.91 272.14,-349.09 235.05,-330.84"/>
</g>
<!-- v11&#45;&#45;v21 -->
<g id="edge18" class="edge">
<title>v11&#45;&#45;v21</title>
<path fill="none" stroke="#888888" stroke-width="0.8" d="M430.49,-409.13C478.26,-399.89 581.53,-377.74 664,-345 672.46,-341.64 681.32,-337.15 689.1,-332.84"/>
</g>
<!-- v22 -->
<g id="node11" class="node">
<title>v22</title>
<ellipse fill="#dddddd" stroke="black" cx="303" cy="-221" rx="27" ry="27"/>
<text text-anchor="middle" x="303" y="-219.1" font-family="Helvetica,sans-Serif" font-size="8.00">40</text>
</g>
<!-- v11&#45;&#45;v22 -->
<g id="edge29" class="edge">
<title>v11&#45;&#45;v22</title>
<path fill="none" stroke="#888888" stroke-width="0.8" d="M385.32,-395.13C373.11,-381.96 357.52,-363.5 347,-345 329.06,-313.46 316.36,-273.29 309.36,-247.61"/>
</g>
<!-- calc -->
<g id="node17" class="node">
<title>calc</title>
<polygon fill="white" stroke="black" stroke-width="0.8" points="642,-344.5 368,-344.5 368,-291.5 642,-291.5 642,-344.5"/>
<text text-anchor="middle" x="505" y="-334.1" font-family="Helvetica,sans-Serif" font-size="8.00">v11 diffusion step:</text>
<text text-anchor="middle" x="505" y="-325.1" font-family="Helvetica,sans-Serif" font-size="8.00">N(v11) = {v00,v01,v10,v12,v20,v21} &#160;deg = 6</text>
<text text-anchor="middle" x="505" y="-316.1" font-family="Helvetica,sans-Serif" font-size="8.00">h&#39; = (300+0+0+20+80+5+150) / 7 × 0.96</text>
<text text-anchor="middle" x="505" y="-307.1" font-family="Helvetica,sans-Serif" font-size="8.00"> &#160;&#160;&#160;= 555 / 7 × 0.96 &#160;= &#160;76.1</text>
<text text-anchor="middle" x="505" y="-298.1" font-family="Helvetica,sans-Serif" font-size="8.00">← peak spreads to neighbors</text>
</g>
<!-- v11&#45;&#45;calc -->
<g id="edge34" class="edge">
<title>v11&#45;&#45;calc</title>
<path fill="none" stroke="black" stroke-width="0.8" stroke-dasharray="5,2" d="M423.47,-395.68C438.84,-381.23 460.45,-360.9 477.57,-344.8"/>
</g>
<!-- v12&#45;&#45;v13 -->
<g id="edge6" class="edge">
<title>v12&#45;&#45;v13</title>
<path fill="none" stroke="#888888" stroke-width="0.8" d="M192.38,-297.78C176.42,-281.29 153.54,-257.67 137.59,-241.2"/>
</g>
<!-- v12&#45;&#45;v22 -->
<g id="edge19" class="edge">
<title>v12&#45;&#45;v22</title>
<path fill="none" stroke="#888888" stroke-width="0.8" d="M229.62,-297.78C245.58,-281.29 268.46,-257.67 284.41,-241.2"/>
</g>
<!-- v23 -->
<g id="node12" class="node">
<title>v23</title>
<ellipse fill="white" stroke="black" cx="211" cy="-124" rx="27" ry="27"/>
<text text-anchor="middle" x="211" y="-122.1" font-family="Helvetica,sans-Serif" font-size="8.00">0</text>
</g>
<!-- v12&#45;&#45;v23 -->
<g id="edge30" class="edge">
<title>v12&#45;&#45;v23</title>
<path fill="none" stroke="#888888" stroke-width="0.8" d="M211,-290.71C211,-254.04 211,-187.94 211,-151.28"/>
</g>
<!-- v13&#45;&#45;v23 -->
<g id="edge20" class="edge">
<title>v13&#45;&#45;v23</title>
<path fill="none" stroke="#888888" stroke-width="0.8" d="M137.62,-200.78C153.58,-184.29 176.46,-160.67 192.41,-144.2"/>
</g>
<!-- v20&#45;&#45;v21 -->
<g id="edge7" class="edge">
<title>v20&#45;&#45;v21</title>
<path fill="none" stroke="#888888" stroke-width="0.8" d="M748.13,-390.52C740.75,-375.9 731.29,-357.17 723.9,-342.54"/>
</g>
<!-- v30 -->
<g id="node13" class="node">
<title>v30</title>
<ellipse fill="white" stroke="black" cx="809" cy="-318" rx="27" ry="27"/>
<text text-anchor="middle" x="809" y="-316.1" font-family="Helvetica,sans-Serif" font-size="8.00">0</text>
</g>
<!-- v20&#45;&#45;v30 -->
<g id="edge21" class="edge">
<title>v20&#45;&#45;v30</title>
<path fill="none" stroke="#888888" stroke-width="0.8" d="M772.11,-390.52C779.71,-375.79 789.46,-356.89 797.03,-342.21"/>
</g>
<!-- v31 -->
<g id="node14" class="node">
<title>v31</title>
<ellipse fill="#dddddd" stroke="black" cx="760" cy="-221" rx="27" ry="27"/>
<text text-anchor="middle" x="760" y="-219.1" font-family="Helvetica,sans-Serif" font-size="8.00">30</text>
</g>
<!-- v20&#45;&#45;v31 -->
<g id="edge31" class="edge">
<title>v20&#45;&#45;v31</title>
<path fill="none" stroke="#888888" stroke-width="0.8" d="M784.98,-404.44C808.65,-393.87 842.76,-374.37 858,-345 869.05,-323.7 869.05,-312.3 858,-291 842.76,-261.63 808.65,-242.13 784.98,-231.56"/>
</g>
<!-- v21&#45;&#45;v22 -->
<g id="edge8" class="edge">
<title>v21&#45;&#45;v22</title>
<path fill="none" stroke="#888888" stroke-width="0.8" d="M689.23,-302.81C681.46,-298.48 672.57,-294.06 664,-291 543.8,-248.12 391.08,-230.13 330.01,-224.31"/>
</g>
<!-- v21&#45;&#45;v31 -->
<g id="edge22" class="edge">
<title>v21&#45;&#45;v31</title>
<path fill="none" stroke="#888888" stroke-width="0.8" d="M723.87,-293.52C731.25,-278.9 740.71,-260.17 748.1,-245.54"/>
</g>
<!-- v32 -->
<g id="node15" class="node">
<title>v32</title>
<ellipse fill="#eeeeee" stroke="black" cx="500" cy="-124" rx="27" ry="27"/>
<text text-anchor="middle" x="500" y="-122.1" font-family="Helvetica,sans-Serif" font-size="8.00">10</text>
</g>
<!-- v21&#45;&#45;v32 -->
<g id="edge32" class="edge">
<title>v21&#45;&#45;v32</title>
<path fill="none" stroke="#888888" stroke-width="0.8" d="M692.44,-299.28C652.05,-262.7 559.86,-179.22 519.52,-142.68"/>
</g>
<!-- v22&#45;&#45;v23 -->
<g id="edge9" class="edge">
<title>v22&#45;&#45;v23</title>
<path fill="none" stroke="#888888" stroke-width="0.8" d="M284.38,-200.78C268.42,-184.29 245.54,-160.67 229.59,-144.2"/>
</g>
<!-- v22&#45;&#45;v32 -->
<g id="edge23" class="edge">
<title>v22&#45;&#45;v32</title>
<path fill="none" stroke="#888888" stroke-width="0.8" d="M327.16,-208.35C365.07,-190.07 438.11,-154.84 475.95,-136.6"/>
</g>
<!-- v33 -->
<g id="node16" class="node">
<title>v33</title>
<ellipse fill="white" stroke="black" cx="303" cy="-27" rx="27" ry="27"/>
<text text-anchor="middle" x="303" y="-25.1" font-family="Helvetica,sans-Serif" font-size="8.00">0</text>
</g>
<!-- v22&#45;&#45;v33 -->
<g id="edge33" class="edge">
<title>v22&#45;&#45;v33</title>
<path fill="none" stroke="#888888" stroke-width="0.8" d="M303,-193.71C303,-157.04 303,-90.94 303,-54.28"/>
</g>
<!-- v23&#45;&#45;v33 -->
<g id="edge24" class="edge">
<title>v23&#45;&#45;v33</title>
<path fill="none" stroke="#888888" stroke-width="0.8" d="M229.62,-103.78C245.58,-87.29 268.46,-63.67 284.41,-47.2"/>
</g>
<!-- v30&#45;&#45;v31 -->
<g id="edge10" class="edge">
<title>v30&#45;&#45;v31</title>
<path fill="none" stroke="#888888" stroke-width="0.8" d="M796.89,-293.52C789.29,-278.79 779.54,-259.89 771.97,-245.21"/>
</g>
<!-- v31&#45;&#45;v32 -->
<g id="edge11" class="edge">
<title>v31&#45;&#45;v32</title>
<path fill="none" stroke="#888888" stroke-width="0.8" d="M734.6,-210.72C684.76,-192.51 574.73,-152.31 525.12,-134.18"/>
</g>
<!-- v32&#45;&#45;v33 -->
<g id="edge12" class="edge">
<title>v32&#45;&#45;v33</title>
<path fill="none" stroke="#888888" stroke-width="0.8" d="M475.84,-111.35C437.93,-93.07 364.89,-57.84 327.05,-39.6"/>
</g>
<!-- inject -->
<g id="node18" class="node">
<title>inject</title>
<polygon fill="none" stroke="#666666" stroke-width="0.8" stroke-dasharray="5,2" points="704,-627 474,-627 474,-591 704,-591 704,-627"/>
<text text-anchor="middle" x="589" y="-611.6" font-family="Helvetica,sans-Serif" font-size="8.00" fill="#444444">Program / agent injection:</text>
<text text-anchor="middle" x="589" y="-602.6" font-family="Helvetica,sans-Serif" font-size="8.00" fill="#444444">heat[i] += Δ &#160;&#160;(additive, runs before diffuse)</text>
</g>
</g>
</svg>
