<?xml version="1.0" encoding="UTF-8" standalone="no"?>
<!DOCTYPE svg PUBLIC "-//W3C//DTD SVG 1.1//EN"
 "http://www.w3.org/Graphics/SVG/1.1/DTD/svg11.dtd">
<!-- Generated by graphviz version 2.43.0 (0)
 -->
<!-- Title: sym2 Pages: 1 -->
<svg width="796pt" height="413pt"
 viewBox="0.00 0.00 795.60 412.60" xmlns="http://www.w3.org/2000/svg" xmlns:xlink="http://www.w3.org/1999/xlink">
<g id="graph0" class="graph" transform="scale(1 1) rotate(0) translate(28.8 383.8)">
<title>sym2</title>
<polygon fill="white" stroke="transparent" points="-28.8,28.8 -28.8,-383.8 766.8,-383.8 766.8,28.8 -28.8,28.8"/>
<g id="clust1" class="cluster">
<title>cluster_X</title>
<polygon fill="white" stroke="black" points="292,-277 292,-347 578,-347 578,-277 292,-277"/>
<text text-anchor="middle" x="435" y="-335.8" font-family="Helvetica,sans-Serif" font-weight="bold" font-size="9.00">X &#160;(user&#45;drawn points)</text>
</g>
<g id="clust2" class="cluster">
<title>cluster_sym2</title>
<polygon fill="white" stroke="black" points="8,-176 8,-246 730,-246 730,-176 8,-176"/>
<text text-anchor="middle" x="369" y="-234.8" font-family="Helvetica,sans-Serif" font-weight="bold" font-size="9.00">Sym²(X) &#160;(unordered pairs)</text>
</g>
<g id="clust3" class="cluster">
<title>cluster_embed</title>
<polygon fill="white" stroke="black" points="251,-73 251,-145 555,-145 555,-73 251,-73"/>
<text text-anchor="middle" x="403" y="-133.8" font-family="Helvetica,sans-Serif" font-weight="bold" font-size="9.00">R³ Embedding</text>
</g>
<!-- p0 -->
<g id="node1" class="node">
<title>p0</title>
<ellipse fill="white" stroke="black" cx="408" cy="-303" rx="18" ry="18"/>
<text text-anchor="middle" x="408" y="-300.8" font-family="Helvetica,sans-Serif" font-size="9.00">p₀</text>
</g>
<!-- s00 -->
<g id="node5" class="node">
<title>s00</title>
<polygon fill="#e0e0e0" stroke="black" stroke-width="1.5" points="252.5,-220 189.5,-220 189.5,-184 252.5,-184 252.5,-220"/>
<text text-anchor="middle" x="221" y="-199.8" font-family="Helvetica,sans-Serif" font-size="9.00">{p₀,p₀} &#160;Δ</text>
</g>
<!-- p0&#45;&gt;s00 -->
<g id="edge1" class="edge">
<title>p0&#45;&gt;s00</title>
<path fill="none" stroke="black" stroke-width="0.8" d="M394.35,-290.77C387.9,-285.93 379.9,-280.58 372,-277 348.64,-266.4 340.51,-270.57 316,-263 295.17,-256.57 288.73,-257.15 270,-246 261.29,-240.81 252.67,-233.99 245.15,-227.31"/>
<polygon fill="black" stroke="black" stroke-width="0.8" points="247.19,-224.42 237.47,-220.2 242.43,-229.56 247.19,-224.42"/>
<text text-anchor="middle" x="325" y="-256.6" font-family="Helvetica,sans-Serif" font-size="8.00" fill="#444444">p=q</text>
</g>
<!-- s01 -->
<g id="node6" class="node">
<title>s01</title>
<polygon fill="white" stroke="black" points="442,-220 388,-220 388,-184 442,-184 442,-220"/>
<text text-anchor="middle" x="415" y="-199.8" font-family="Helvetica,sans-Serif" font-size="9.00">{p₀,p₁}</text>
</g>
<!-- p0&#45;&gt;s01 -->
<g id="edge2" class="edge">
<title>p0&#45;&gt;s01</title>
<path fill="none" stroke="black" stroke-width="0.8" d="M393.95,-291.54C387.42,-286.87 379.46,-281.43 372,-277 360.03,-269.9 351.31,-274.84 344,-263 341.9,-259.6 341.64,-257.23 344,-254 350.88,-244.58 358.94,-251.9 369,-246 377.59,-240.96 385.88,-234.07 393.01,-227.27"/>
<polygon fill="black" stroke="black" stroke-width="0.8" points="395.65,-229.58 400.25,-220.04 390.7,-224.63 395.65,-229.58"/>
</g>
<!-- s02 -->
<g id="node7" class="node">
<title>s02</title>
<polygon fill="white" stroke="black" points="532,-220 478,-220 478,-184 532,-184 532,-220"/>
<text text-anchor="middle" x="505" y="-199.8" font-family="Helvetica,sans-Serif" font-size="9.00">{p₀,p₂}</text>
</g>
<!-- p0&#45;&gt;s02 -->
<g id="edge3" class="edge">
<title>p0&#45;&gt;s02</title>
<path fill="none" stroke="black" stroke-width="0.8" d="M420.29,-289.46C435.56,-273.87 461.98,-246.9 481.27,-227.22"/>
<polygon fill="black" stroke="black" stroke-width="0.8" points="483.77,-229.67 488.27,-220.08 478.77,-224.77 483.77,-229.67"/>
</g>
<!-- p1 -->
<g id="node2" class="node">
<title>p1</title>
<ellipse fill="white" stroke="black" cx="480" cy="-303" rx="18" ry="18"/>
<text text-anchor="middle" x="480" y="-300.8" font-family="Helvetica,sans-Serif" font-size="9.00">p₁</text>
</g>
<!-- p1&#45;&gt;s01 -->
<g id="edge4" class="edge">
<title>p1&#45;&gt;s01</title>
<path fill="none" stroke="black" stroke-width="0.8" stroke-dasharray="5,2" d="M470.41,-287.39C460.29,-271.98 444.13,-247.37 431.88,-228.7"/>
<polygon fill="black" stroke="black" stroke-width="0.8" points="434.8,-226.77 426.38,-220.34 428.95,-230.62 434.8,-226.77"/>
</g>
<!-- s11 -->
<g id="node8" class="node">
<title>s11</title>
<polygon fill="#e0e0e0" stroke="black" stroke-width="1.5" points="351.5,-220 288.5,-220 288.5,-184 351.5,-184 351.5,-220"/>
<text text-anchor="middle" x="320" y="-199.8" font-family="Helvetica,sans-Serif" font-size="9.00">{p₁,p₁} &#160;Δ</text>
</g>
<!-- p1&#45;&gt;s11 -->
<g id="edge5" class="edge">
<title>p1&#45;&gt;s11</title>
<path fill="none" stroke="black" stroke-width="0.8" d="M466.08,-291.31C459.58,-286.59 451.6,-281.17 444,-277 412.74,-259.85 400.33,-264.74 370,-246 361.42,-240.7 352.82,-233.95 345.23,-227.38"/>
<polygon fill="black" stroke="black" stroke-width="0.8" points="347.23,-224.47 337.44,-220.4 342.55,-229.68 347.23,-224.47"/>
<text text-anchor="middle" x="419" y="-256.6" font-family="Helvetica,sans-Serif" font-size="8.00" fill="#444444">p=q</text>
</g>
<!-- s12 -->
<g id="node9" class="node">
<title>s12</title>
<polygon fill="white" stroke="black" points="622,-220 568,-220 568,-184 622,-184 622,-220"/>
<text text-anchor="middle" x="595" y="-199.8" font-family="Helvetica,sans-Serif" font-size="9.00">{p₁,p₂}</text>
</g>
<!-- p1&#45;&gt;s12 -->
<g id="edge6" class="edge">
<title>p1&#45;&gt;s12</title>
<path fill="none" stroke="black" stroke-width="0.8" d="M493.97,-291.4C508.32,-280.39 531.14,-262.5 550,-246 556.78,-240.07 563.92,-233.44 570.46,-227.2"/>
<polygon fill="black" stroke="black" stroke-width="0.8" points="573.04,-229.57 577.81,-220.11 568.18,-224.53 573.04,-229.57"/>
</g>
<!-- p2 -->
<g id="node3" class="node">
<title>p2</title>
<ellipse fill="white" stroke="black" cx="552" cy="-303" rx="18" ry="18"/>
<text text-anchor="middle" x="552" y="-300.8" font-family="Helvetica,sans-Serif" font-size="9.00">p₂</text>
</g>
<!-- p2&#45;&gt;s02 -->
<g id="edge7" class="edge">
<title>p2&#45;&gt;s02</title>
<path fill="none" stroke="black" stroke-width="0.8" stroke-dasharray="5,2" d="M544.66,-286.53C537.39,-271.23 526.13,-247.51 517.46,-229.25"/>
<polygon fill="black" stroke="black" stroke-width="0.8" points="520.53,-227.55 513.08,-220.02 514.21,-230.55 520.53,-227.55"/>
</g>
<!-- p2&#45;&gt;s12 -->
<g id="edge8" class="edge">
<title>p2&#45;&gt;s12</title>
<path fill="none" stroke="black" stroke-width="0.8" stroke-dasharray="5,2" d="M560.37,-286.62C564.11,-279.52 568.46,-270.92 572,-263 576.83,-252.19 581.6,-240.04 585.54,-229.51"/>
<polygon fill="black" stroke="black" stroke-width="0.8" points="588.87,-230.6 589.03,-220.01 582.3,-228.19 588.87,-230.6"/>
</g>
<!-- s22 -->
<g id="node10" class="node">
<title>s22</title>
<polygon fill="#e0e0e0" stroke="black" stroke-width="1.5" points="721.5,-220 658.5,-220 658.5,-184 721.5,-184 721.5,-220"/>
<text text-anchor="middle" x="690" y="-199.8" font-family="Helvetica,sans-Serif" font-size="9.00">{p₂,p₂} &#160;Δ</text>
</g>
<!-- p2&#45;&gt;s22 -->
<g id="edge9" class="edge">
<title>p2&#45;&gt;s22</title>
<path fill="none" stroke="black" stroke-width="0.8" d="M567.39,-293.13C585.31,-282.58 615.57,-264.13 640,-246 647.83,-240.19 655.99,-233.48 663.39,-227.12"/>
<polygon fill="black" stroke="black" stroke-width="0.8" points="665.84,-229.63 671.06,-220.41 661.23,-224.36 665.84,-229.63"/>
<text text-anchor="middle" x="637" y="-256.6" font-family="Helvetica,sans-Serif" font-size="8.00" fill="#444444">p=q</text>
</g>
<!-- pn -->
<g id="node4" class="node">
<title>pn</title>
<polygon fill="white" stroke="transparent" points="354,-321 300,-321 300,-285 354,-285 354,-321"/>
<text text-anchor="middle" x="327" y="-300.8" font-family="Helvetica,sans-Serif" font-size="9.00">…</text>
</g>
<!-- e_diag -->
<g id="node12" class="node">
<title>e_diag</title>
<polygon fill="#e0e0e0" stroke="black" stroke-width="1.5" points="381,-119 259,-119 259,-81 381,-81 381,-119"/>
<text text-anchor="middle" x="320" y="-107.8" font-family="Helvetica,sans-Serif" font-size="9.00">(mid_x, mid_y, 0)</text>
<text text-anchor="middle" x="320" y="-97.8" font-family="Helvetica,sans-Serif" font-size="9.00">z = 0 &#160;— on base plane</text>
<text text-anchor="middle" x="320" y="-87.8" font-family="Helvetica,sans-Serif" font-size="9.00">← seam / degenerate</text>
</g>
<!-- s00&#45;&gt;e_diag -->
<g id="edge10" class="edge">
<title>s00&#45;&gt;e_diag</title>
<path fill="none" stroke="black" stroke-width="0.8" d="M238.24,-183.58C253.85,-167.82 277.04,-144.39 294.74,-126.52"/>
<polygon fill="black" stroke="black" stroke-width="0.8" points="297.4,-128.8 301.95,-119.23 292.43,-123.88 297.4,-128.8"/>
<text text-anchor="middle" x="276.5" y="-155.6" font-family="Helvetica,sans-Serif" font-size="8.00" fill="#444444">z=0</text>
</g>
<!-- e_off -->
<g id="node13" class="node">
<title>e_off</title>
<polygon fill="white" stroke="black" points="546.5,-119 417.5,-119 417.5,-81 546.5,-81 546.5,-119"/>
<text text-anchor="middle" x="482" y="-107.8" font-family="Helvetica,sans-Serif" font-size="9.00">(mid_x, mid_y, |p−q|)</text>
<text text-anchor="middle" x="482" y="-97.8" font-family="Helvetica,sans-Serif" font-size="9.00">z = separation distance</text>
<text text-anchor="middle" x="482" y="-87.8" font-family="Helvetica,sans-Serif" font-size="9.00">← rises above base plane</text>
</g>
<!-- s01&#45;&gt;e_off -->
<g id="edge13" class="edge">
<title>s01&#45;&gt;e_off</title>
<path fill="none" stroke="black" stroke-width="0.8" d="M426.67,-183.58C436.95,-168.24 452.09,-145.64 463.93,-127.96"/>
<polygon fill="black" stroke="black" stroke-width="0.8" points="467.13,-129.49 469.78,-119.23 461.31,-125.59 467.13,-129.49"/>
<text text-anchor="middle" x="461.5" y="-155.6" font-family="Helvetica,sans-Serif" font-size="8.00" fill="#444444">embed</text>
</g>
<!-- s11&#45;&gt;e_diag -->
<g id="edge11" class="edge">
<title>s11&#45;&gt;e_diag</title>
<path fill="none" stroke="black" stroke-width="0.8" stroke-dasharray="5,2" d="M320,-183.58C320,-168.66 320,-146.88 320,-129.44"/>
<polygon fill="black" stroke="black" stroke-width="0.8" points="323.5,-129.23 320,-119.23 316.5,-129.23 323.5,-129.23"/>
</g>
<!-- s12&#45;&gt;e_off -->
<g id="edge14" class="edge">
<title>s12&#45;&gt;e_off</title>
<path fill="none" stroke="black" stroke-width="0.8" stroke-dasharray="5,2" d="M575.57,-183.81C557.64,-167.94 530.77,-144.16 510.42,-126.15"/>
<polygon fill="black" stroke="black" stroke-width="0.8" points="512.51,-123.32 502.7,-119.32 507.87,-128.57 512.51,-123.32"/>
</g>
<!-- s22&#45;&gt;e_diag -->
<g id="edge12" class="edge">
<title>s22&#45;&gt;e_diag</title>
<path fill="none" stroke="black" stroke-width="0.8" stroke-dasharray="5,2" d="M659.7,-183.95C653.34,-180.92 646.57,-178.07 640,-176 573.58,-155.05 554.14,-161.34 485,-153 446.89,-148.4 435.67,-156.36 399,-145 383.77,-140.28 368.19,-132.38 354.94,-124.57"/>
<polygon fill="black" stroke="black" stroke-width="0.8" points="356.52,-121.43 346.16,-119.21 352.87,-127.41 356.52,-121.43"/>
</g>
<!-- sym_note -->
<g id="node11" class="node">
<title>sym_note</title>
<polygon fill="white" stroke="transparent" points="153.5,-220 16.5,-220 16.5,-184 153.5,-184 153.5,-220"/>
<text text-anchor="middle" x="85" y="-200.1" font-family="Helvetica,sans-Serif" font-size="8.00" fill="#666666">{p₀,p₁} ≡ {p₁,p₀} &#160;(symmetry)</text>
</g>
<!-- seam_note -->
<g id="node14" class="node">
<title>seam_note</title>
<polygon fill="none" stroke="#666666" stroke-dasharray="5,2" points="375.5,-36 264.5,-36 264.5,0 375.5,0 375.5,-36"/>
<text text-anchor="middle" x="320" y="-25.1" font-family="Helvetica,sans-Serif" font-size="8.00" fill="#666666">Δ = diagonal locus</text>
<text text-anchor="middle" x="320" y="-16.1" font-family="Helvetica,sans-Serif" font-size="8.00" fill="#666666"> &#160;p = q &#160;→ &#160;z = 0</text>
<text text-anchor="middle" x="320" y="-7.1" font-family="Helvetica,sans-Serif" font-size="8.00" fill="#666666"> &#160;rendered as red seam</text>
</g>
<!-- e_diag&#45;&gt;seam_note -->
<g id="edge15" class="edge">
<title>e_diag&#45;&gt;seam_note</title>
<path fill="none" stroke="black" stroke-width="0.8" stroke-dasharray="5,2" d="M320,-80.85C320,-67.48 320,-49.41 320,-36.26"/>
</g>
</g>
</svg>
