<?xml version="1.0" encoding="UTF-8" standalone="no"?>
<!DOCTYPE svg PUBLIC "-//W3C//DTD SVG 1.1//EN"
 "http://www.w3.org/Graphics/SVG/1.1/DTD/svg11.dtd">
<!-- Generated by graphviz version 2.43.0 (0)
 -->
<!-- Title: release Pages: 1 -->
<svg width="616pt" height="81pt"
 viewBox="0.00 0.00 616.20 81.20" xmlns="http://www.w3.org/2000/svg" xmlns:xlink="http://www.w3.org/1999/xlink">
<g id="graph0" class="graph" transform="scale(1 1) rotate(0) translate(21.6 59.6)">
<title>release</title>
<polygon fill="white" stroke="transparent" points="-21.6,21.6 -21.6,-59.6 594.6,-59.6 594.6,21.6 -21.6,21.6"/>
<!-- tag -->
<g id="node1" class="node">
<title>tag</title>
<text text-anchor="middle" x="51" y="-16.2" font-family="monospace" font-size="11.00">git tag X.Y.Z</text>
</g>
<!-- ci -->
<g id="node2" class="node">
<title>ci</title>
<text text-anchor="middle" x="175.5" y="-22.2" font-family="monospace" font-size="11.00">gitlab&#45;ci</text>
<text text-anchor="middle" x="175.5" y="-10.2" font-family="monospace" font-size="11.00">triggers</text>
</g>
<!-- tag&#45;&gt;ci -->
<g id="edge1" class="edge">
<title>tag&#45;&gt;ci</title>
<path fill="none" stroke="black" stroke-width="0.8" d="M102.36,-19C102.36,-19 131.95,-19 131.95,-19"/>
<polygon fill="black" stroke="black" stroke-width="0.8" points="131.95,-21.1 137.95,-19 131.95,-16.9 131.95,-21.1"/>
<text text-anchor="middle" x="151.66" y="-19.3" font-family="monospace" font-size="9.00"> semver match</text>
</g>
<!-- ver -->
<g id="node3" class="node">
<title>ver</title>
<text text-anchor="middle" x="297" y="-22.2" font-family="monospace" font-size="11.00">write</text>
<text text-anchor="middle" x="297" y="-10.2" font-family="monospace" font-size="11.00">version.json</text>
</g>
<!-- ci&#45;&gt;ver -->
<g id="edge2" class="edge">
<title>ci&#45;&gt;ver</title>
<path fill="none" stroke="black" stroke-width="0.8" d="M213.28,-19C213.28,-19 242.94,-19 242.94,-19"/>
<polygon fill="black" stroke="black" stroke-width="0.8" points="242.94,-21.1 248.94,-19 242.94,-16.9 242.94,-21.1"/>
</g>
<!-- dep -->
<g id="node4" class="node">
<title>dep</title>
<text text-anchor="middle" x="432" y="-22.2" font-family="monospace" font-size="11.00">deploy&#45;www.sh</text>
<text text-anchor="middle" x="432" y="-10.2" font-family="monospace" font-size="11.00">cuppcb</text>
</g>
<!-- ver&#45;&gt;dep -->
<g id="edge3" class="edge">
<title>ver&#45;&gt;dep</title>
<path fill="none" stroke="black" stroke-width="0.8" d="M345.36,-19C345.36,-19 374.79,-19 374.79,-19"/>
<polygon fill="black" stroke="black" stroke-width="0.8" points="374.79,-21.1 380.79,-19 374.79,-16.9 374.79,-21.1"/>
</g>
<!-- live -->
<g id="node5" class="node">
<title>live</title>
<text text-anchor="middle" x="546" y="-16.2" font-family="monospace" font-size="11.00">live</text>
</g>
<!-- dep&#45;&gt;live -->
<g id="edge4" class="edge">
<title>dep&#45;&gt;live</title>
<path fill="none" stroke="black" stroke-width="0.8" d="M483.33,-19C483.33,-19 512.96,-19 512.96,-19"/>
<polygon fill="black" stroke="black" stroke-width="0.8" points="512.96,-21.1 518.96,-19 512.96,-16.9 512.96,-21.1"/>
</g>
</g>
</svg>
